# xmcd CD database file
#
# Track frame offsets:
#	150
#	20322
#	36982
#	62967
#	82627
#
# Disc length: 1314 seconds
#
# Revision: 0
# Processed by: cddbd v1.5.2PL0 Copyright (c) Steve Scherf et al.
# Submitted via: CDex 1.51
#
DISCID=32052005
DTITLE=Rab McCullough - Belfast Blues
DYEAR=2000
DGENRE=Blues
TTITLE0=Louisiana Woman
TTITLE1=Walkin' back to you
TTITLE2=Ain't gonna be your fool
TTITLE3=Trouble
TTITLE4=Mistreatin' me
EXTD=YEAR: 2000
EXTT0=
EXTT1=
EXTT2=
EXTT3=
EXTT4=
PLAYORDER=
